<?xml version="1.0" standalone="no"?>
<!DOCTYPE svg PUBLIC "-//W3C//DTD SVG 20010904//EN"
 "http://www.w3.org/TR/2001/REC-SVG-20010904/DTD/svg10.dtd">
<svg version="1.0" xmlns="http://www.w3.org/2000/svg"
 width="1000.000000pt" height="1000.000000pt" viewBox="0 0 1000.000000 1000.000000"
 preserveAspectRatio="xMidYMid meet">
<metadata>
Created by potrace 1.11, written by Peter Selinger 2001-2013
</metadata>
<g transform="translate(0.000000,1000.000000) scale(0.100000,-0.100000)"
fill="#000000" stroke="none">
<path d="M2945 9970 c-3 -5 -2 -10 4 -10 5 0 15 -17 21 -37 7 -21 32 -78 55
-128 76 -162 105 -271 105 -391 l0 -74 -35 0 c-19 0 -43 4 -53 10 -9 5 -46 19
-82 31 -36 12 -81 28 -100 36 -67 29 -75 32 -115 44 -22 6 -49 15 -60 19 -87
31 -176 44 -219 32 -26 -7 -33 -18 -62 -100 -35 -99 -41 -107 -146 -178 -42
-28 -68 -53 -68 -64 0 -17 -23 -48 -108 -148 -20 -24 -45 -67 -54 -95 -10 -29
-22 -59 -27 -68 -5 -9 -13 -34 -16 -55 -4 -22 -18 -61 -32 -89 -24 -47 -49
-89 -198 -330 -34 -55 -108 -179 -164 -275 -56 -96 -107 -184 -114 -194 -7
-11 -51 -81 -98 -155 -112 -177 -122 -196 -114 -231 17 -79 138 -184 239 -208
34 -7 113 -18 176 -22 142 -10 237 -25 256 -41 10 -8 13 -24 8 -58 -5 -44 -18
-221 -29 -401 -3 -47 -9 -114 -15 -150 -5 -36 -14 -112 -20 -170 -5 -58 -15
-154 -21 -213 -6 -60 -9 -111 -6 -114 3 -3 27 0 54 6 168 39 251 52 298 46 65
-8 154 -41 182 -67 15 -14 53 -25 131 -38 157 -27 162 -30 162 -100 l0 -57 52
-7 c29 -4 58 -12 66 -18 21 -18 34 4 43 69 5 32 20 175 33 318 14 143 30 298
36 345 6 47 15 139 20 205 5 66 14 152 19 190 5 39 12 108 16 155 6 90 19 218
61 620 39 383 43 410 63 410 15 0 61 -16 246 -88 71 -27 421 -158 693 -259 53
-19 113 -41 132 -49 19 -7 87 -31 150 -54 138 -50 263 -97 385 -143 50 -18
153 -57 230 -86 77 -28 172 -65 210 -80 39 -16 86 -33 105 -39 19 -6 73 -24
120 -42 47 -18 114 -42 150 -55 36 -13 169 -63 295 -110 127 -48 291 -109 365
-135 409 -148 503 -182 630 -230 41 -16 131 -50 200 -75 69 -25 130 -51 137
-58 11 -11 16 -73 44 -552 14 -251 27 -383 41 -424 6 -20 28 -71 50 -115 21
-43 38 -83 38 -89 0 -6 8 -20 19 -31 23 -26 51 -109 51 -151 0 -46 59 -92 125
-96 l49 -4 0 35 c1 34 2 35 66 52 36 9 92 26 125 38 261 92 294 100 389 96 50
-2 99 -7 108 -11 28 -11 31 13 18 187 -7 90 -16 222 -20 293 -23 352 -32 492
-40 625 -12 197 -26 415 -39 595 -6 83 -13 184 -16 225 -13 208 -32 285 -71
301 -18 6 -24 16 -24 39 0 39 -22 82 -55 108 -32 26 -32 40 3 54 15 6 46 19
69 29 24 11 45 19 49 19 12 0 148 93 166 113 31 36 40 68 25 86 -19 23 -37 69
-37 95 0 13 -7 38 -17 56 -10 21 -19 79 -26 164 -12 167 -12 160 -2 299 8 115
8 117 -13 117 -14 0 -27 11 -37 29 -8 17 -30 41 -48 55 -30 23 -43 26 -118 26
-47 0 -90 -5 -95 -10 -14 -14 -40 -3 -59 26 -8 13 -33 35 -55 49 -22 14 -40
31 -40 38 0 12 -54 121 -98 200 -28 48 -28 75 0 104 12 13 19 25 16 29 -8 7
-253 -40 -296 -57 -13 -5 -34 -9 -47 -9 -13 0 -27 -4 -30 -10 -3 -5 -19 -10
-35 -10 -16 0 -31 -4 -34 -9 -3 -5 -20 -11 -38 -14 -18 -2 -60 -12 -93 -22
-33 -9 -87 -23 -120 -31 -70 -17 -130 -33 -165 -44 -14 -5 -45 -13 -70 -19
-25 -5 -83 -20 -130 -32 -47 -11 -95 -23 -108 -26 -28 -7 -63 10 -771 365
-397 200 -567 280 -574 273 -6 -6 -26 -11 -43 -11 -35 0 -89 -38 -99 -70 -3
-10 -22 -30 -41 -45 -32 -25 -38 -26 -67 -14 -18 7 -45 23 -62 35 -26 19 -84
54 -242 145 -18 11 -50 28 -70 40 -21 12 -53 30 -70 41 -20 12 -41 17 -53 13
-11 -4 -20 -2 -20 4 0 6 -11 11 -24 11 -14 0 -37 4 -51 10 -37 14 -66 -4 -115
-69 -30 -40 -40 -62 -40 -91 0 -22 -4 -42 -10 -45 -5 -3 -33 5 -62 18 -89 40
-105 41 -124 10 -9 -16 -25 -40 -35 -55 -11 -15 -19 -37 -19 -48 0 -12 -7 -34
-15 -50 -20 -39 -50 -39 -113 0 -27 17 -52 30 -55 30 -3 0 -59 29 -124 64
-307 165 -312 168 -413 215 -134 61 -239 87 -255 61z"/>
<path d="M3246 6499 c-24 -23 -46 -83 -46 -124 0 -17 -7 -41 -16 -53 -8 -12
-13 -26 -10 -30 9 -15 -35 -174 -65 -233 -16 -32 -29 -65 -29 -73 0 -14 51
-33 90 -34 90 -3 216 -28 240 -48 19 -15 161 -10 275 10 75 14 88 13 210 -9
72 -13 156 -26 187 -30 32 -3 82 -15 113 -26 30 -10 63 -19 74 -19 11 0 23 -4
26 -10 8 -13 -49 -13 -117 0 -29 6 -75 15 -103 20 -27 5 -94 17 -148 26 l-98
17 -106 -52 c-101 -49 -162 -89 -373 -245 -132 -98 -317 -286 -352 -358 -16
-31 -28 -63 -28 -70 0 -18 -37 -95 -49 -103 -26 -15 7 -34 89 -50 74 -14 89
-21 94 -39 7 -26 68 -285 97 -416 12 -52 32 -139 45 -192 13 -53 24 -106 24
-117 0 -11 8 -25 18 -30 17 -9 195 -44 272 -54 46 -6 309 -59 415 -84 13 -3
40 11 80 43 33 26 132 94 220 152 88 57 223 146 300 197 186 123 278 181 314
199 16 9 60 39 97 66 36 28 80 54 98 57 17 3 45 14 61 24 22 12 77 22 195 33
91 9 177 19 191 22 33 6 52 -16 54 -64 l1 -37 102 -21 c111 -23 132 -34 132
-70 0 -12 8 -30 18 -40 9 -9 25 -31 34 -48 41 -76 78 -156 78 -169 0 -8 5 -28
11 -45 9 -27 16 -31 57 -36 88 -11 536 -37 677 -39 l140 -2 0 42 c0 23 3 45 8
49 4 4 7 24 7 45 0 25 6 42 18 51 11 7 31 32 45 55 14 23 59 81 100 130 40 48
94 117 118 153 44 62 99 167 99 186 0 5 -13 23 -28 40 -15 18 -45 52 -67 78
-22 25 -46 46 -53 46 -10 0 -12 11 -6 45 9 63 -12 87 -67 79 -34 -6 -39 -4
-39 12 0 11 -8 52 -17 93 -16 64 -25 81 -68 128 -28 29 -51 53 -50 54 0 0 41
2 90 5 165 8 192 30 188 149 -8 223 -7 272 6 303 23 54 8 60 -174 76 -88 8
-290 28 -450 45 -260 27 -470 49 -810 82 -60 6 -140 15 -177 20 -37 5 -85 9
-107 9 l-41 0 0 -54 c0 -40 6 -61 25 -87 31 -43 75 -131 75 -150 0 -8 8 -31
19 -51 10 -20 22 -70 25 -109 6 -57 14 -83 39 -121 l32 -49 115 6 c63 4 121
10 130 14 8 5 34 11 58 14 l43 5 -6 -36 c-9 -51 -23 -79 -70 -136 -43 -54 -58
-77 -77 -118 -6 -15 -21 -32 -32 -38 -12 -6 -29 -24 -38 -40 -10 -18 -25 -30
-38 -30 -13 0 -24 -10 -31 -27 -6 -16 -17 -35 -25 -44 -13 -15 -13 -21 0 -53
21 -51 21 -51 -32 -52 -97 -3 -175 -14 -191 -27 -23 -19 -72 -41 -101 -45 -43
-6 -122 -2 -140 8 -11 6 -30 5 -53 -2 -47 -15 -63 -7 -89 45 -13 24 -39 73
-57 108 -28 51 -35 76 -36 121 0 39 -6 62 -18 75 -9 11 -17 31 -17 44 0 23
-27 86 -48 112 -11 13 -9 90 3 124 9 28 -7 35 -135 57 -142 25 -150 27 -150
36 0 27 248 46 346 27 39 -8 42 -7 54 22 16 39 15 92 -1 122 -10 17 -13 63
-12 156 l1 131 -26 10 c-47 18 -165 42 -362 72 -30 5 -217 36 -415 70 -198 34
-389 66 -425 71 -36 5 -99 15 -140 23 -41 8 -113 19 -160 26 -47 6 -96 13
-110 15 -16 3 -32 -3 -44 -16z m1091 -695 c-3 -3 -12 -4 -19 -1 -8 3 -5 6 6 6
11 1 17 -2 13 -5z"/>
<path d="M5490 4440 c0 -5 7 -10 16 -10 8 0 12 5 9 10 -3 6 -10 10 -16 10 -5
0 -9 -4 -9 -10z"/>
<path d="M6455 4016 c-16 -8 -53 -33 -80 -57 -28 -24 -71 -60 -94 -79 -24 -19
-65 -54 -91 -76 -60 -52 -88 -56 -395 -59 -206 -2 -243 -5 -360 -30 -71 -14
-175 -36 -230 -47 -55 -12 -128 -21 -161 -22 -34 -1 -68 -6 -75 -12 -23 -18
-81 -35 -149 -44 -36 -5 -110 -15 -165 -23 -55 -8 -152 -20 -215 -26 -63 -6
-191 -18 -285 -27 -93 -9 -244 -16 -335 -16 -188 2 -176 -3 -210 96 -31 91
-63 151 -82 154 -17 3 -18 -9 -18 -153 0 -112 4 -172 16 -210 27 -93 139 -215
197 -215 12 0 38 -5 57 -10 105 -31 251 -38 444 -20 101 10 117 14 210 60 56
28 121 62 146 78 25 15 113 67 195 116 83 49 167 102 188 119 30 23 44 28 70
23 18 -3 57 -10 87 -15 30 -6 179 -39 330 -74 403 -95 433 -100 523 -94 89 6
117 21 224 120 120 113 215 280 263 464 8 31 17 44 38 51 15 6 36 17 47 26 19
15 18 15 -20 15 -22 0 -53 -6 -70 -13z"/>
<path d="M8591 3964 c0 -11 3 -14 6 -6 3 7 2 16 -1 19 -3 4 -6 -2 -5 -13z"/>
<path d="M8566 3884 c-4 -14 -5 -29 -2 -31 3 -3 8 7 12 21 3 15 4 29 1 32 -2
3 -8 -7 -11 -22z"/>
<path d="M7433 3848 c-22 -25 -32 -83 -39 -238 -10 -212 -1 -334 27 -364 5 -6
9 -25 9 -43 0 -18 5 -64 12 -103 11 -65 10 -74 -7 -107 -11 -20 -38 -48 -60
-62 -22 -14 -42 -29 -43 -34 -2 -4 -21 -16 -42 -27 -45 -23 -100 -99 -100
-139 0 -42 -20 -90 -56 -138 -18 -23 -35 -57 -39 -75 -4 -18 -14 -42 -21 -53
-8 -11 -14 -27 -14 -37 0 -29 -23 -21 -122 40 -123 77 -126 78 -140 44 -7 -15
-17 -34 -23 -42 -34 -45 -49 -226 -21 -265 7 -11 26 -56 41 -99 23 -68 25 -83
14 -105 -10 -21 -13 -23 -16 -9 -3 9 -13 20 -24 23 -11 4 -93 48 -182 98 -89
50 -179 97 -199 105 -36 14 -37 14 -61 -14 -16 -18 -27 -47 -31 -76 -5 -33
-16 -59 -36 -81 -16 -18 -32 -46 -36 -63 -4 -16 -15 -46 -25 -66 -11 -21 -19
-51 -19 -69 0 -17 -9 -42 -20 -56 -17 -22 -20 -41 -20 -124 0 -54 -4 -100 -10
-104 -8 -5 -73 18 -165 60 -78 35 -197 76 -211 73 -15 -3 -44 -66 -44 -97 0
-7 -14 -31 -31 -53 -17 -21 -46 -80 -64 -131 -44 -125 -52 -144 -63 -151 -5
-3 -56 3 -113 14 -127 24 -138 25 -145 3 -3 -10 -10 -26 -16 -37 -31 -59 -54
-97 -86 -145 l-35 -53 -131 6 c-72 4 -227 9 -345 12 -118 2 -218 7 -223 10
-31 19 26 133 80 160 39 20 70 54 65 74 -3 10 -23 26 -46 35 -23 10 -64 28
-92 40 -27 13 -61 26 -75 30 -33 9 -345 119 -440 155 -41 16 -100 36 -130 45
-30 9 -61 19 -69 22 -11 4 -12 -5 -6 -46 5 -41 4 -52 -8 -57 -10 -3 -99 57
-244 166 -125 95 -234 175 -240 177 -19 7 -16 90 4 124 15 24 15 34 5 63 -10
27 -9 68 2 207 29 345 30 358 11 366 -10 3 -25 1 -34 -5 -44 -31 -167 -79
-177 -69 -3 3 -2 20 4 36 8 23 7 44 -3 83 -7 29 -17 75 -21 103 -4 27 -16 61
-26 75 -27 38 -47 175 -47 338 0 120 3 147 20 187 11 25 17 50 14 55 -4 6 -23
18 -43 26 -38 17 -326 119 -440 157 l-63 20 -17 -24 c-17 -25 -31 -98 -37
-204 -2 -33 -8 -73 -15 -90 -11 -29 -27 -106 -55 -271 -8 -45 -21 -107 -30
-138 -8 -31 -22 -82 -30 -113 -9 -32 -15 -84 -13 -118 3 -51 6 -60 23 -63 24
-3 151 -41 180 -53 16 -7 209 -69 263 -85 8 -2 12 -9 10 -16 -5 -14 -57 -46
-75 -47 -19 -1 -243 -148 -281 -184 l-33 -32 6 -110 c4 -60 8 -156 9 -212 2
-93 4 -104 30 -138 28 -36 134 -125 149 -125 4 0 34 -18 66 -39 31 -22 68 -41
81 -43 36 -5 46 -44 31 -115 -7 -32 -18 -71 -25 -88 -18 -49 -9 -219 14 -266
22 -42 150 -157 203 -183 18 -8 68 -38 110 -65 43 -28 80 -51 83 -51 3 0 57
-34 120 -75 63 -41 123 -75 132 -75 9 0 49 -9 87 -20 87 -24 114 -24 143 -2
21 16 23 28 28 142 7 160 7 160 44 125 23 -22 30 -38 30 -68 0 -74 123 -271
177 -283 16 -3 38 -10 51 -15 12 -5 32 -13 45 -18 12 -5 56 -21 97 -36 93 -33
97 -35 195 -80 87 -40 120 -77 151 -170 9 -25 26 -67 39 -93 21 -43 25 -47 61
-47 22 -1 91 -7 154 -14 63 -7 167 -10 230 -8 212 9 287 31 311 91 7 17 18 38
25 46 7 8 14 26 16 40 3 25 4 25 88 23 87 -3 228 -28 244 -44 6 -5 20 -9 32
-9 13 0 25 -4 28 -9 10 -15 55 -19 73 -5 10 7 36 14 59 14 29 0 53 8 81 29 50
36 113 130 113 169 0 51 12 91 29 97 9 2 52 -5 96 -16 91 -24 195 -35 195 -22
0 5 -5 14 -11 20 -9 9 -9 20 1 44 14 33 18 144 12 339 -4 136 7 224 30 228 16
3 59 -17 123 -58 17 -10 36 -19 43 -19 7 -1 30 -12 50 -26 20 -14 68 -34 107
-46 38 -11 82 -24 96 -28 24 -8 28 -6 33 21 3 16 2 37 -3 46 -5 10 -5 66 1
132 15 194 19 221 33 226 7 3 38 -11 68 -30 73 -47 230 -119 285 -131 31 -6
32 -5 32 24 0 17 4 31 9 31 12 0 92 84 130 135 35 49 71 110 111 190 35 71
102 145 130 145 6 0 10 5 10 11 0 6 7 9 15 5 8 -3 29 1 47 9 31 12 34 19 51
97 10 46 22 99 27 118 5 19 12 69 15 110 3 41 10 104 16 140 5 36 12 85 15
110 18 176 27 233 40 260 14 28 44 42 44 21 0 -6 12 -6 29 -1 26 7 50 5 139
-15 76 -17 202 60 202 123 0 51 -12 122 -20 117 -15 -10 -37 118 -26 153 7 25
6 39 -4 55 -8 12 -15 49 -15 82 -1 33 -7 89 -13 125 -13 84 -16 220 -4 220 16
0 23 48 13 88 -5 20 -12 50 -15 65 -6 24 -19 34 -74 58 -37 17 -81 37 -99 45
-17 8 -36 14 -42 14 -6 0 -11 4 -11 9 0 5 -12 12 -27 16 -27 6 -56 18 -138 55
-22 10 -51 21 -65 25 -14 4 -38 13 -55 20 -16 6 -55 20 -85 30 -30 10 -60 20
-65 22 -6 2 -20 -7 -32 -19z m-659 -1950 c-14 -26 -19 -29 -22 -15 -2 10 4 27
14 38 25 27 28 17 8 -23z m-32 -83 c2 -19 0 -35 -4 -35 -4 0 -8 16 -8 35 0 19
2 35 4 35 2 0 6 -16 8 -35z"/>
<path d="M8543 3755 c0 -22 2 -30 4 -17 2 12 2 30 0 40 -3 9 -5 -1 -4 -23z"/>
<path d="M2970 3584 c0 -3 7 -12 15 -20 19 -20 19 -30 0 -38 -10 -4 -19 2 -24
17 -8 20 -10 21 -16 4 -5 -13 -1 -25 11 -38 16 -16 23 -17 44 -6 32 16 36 41
11 66 -20 20 -41 28 -41 15z"/>
<path d="M6265 3254 c-14 -5 -242 -32 -425 -49 -400 -37 -481 -47 -865 -115
-66 -12 -158 -25 -205 -30 -47 -5 -130 -16 -185 -25 -55 -8 -140 -19 -190 -25
-353 -38 -592 -75 -613 -95 -11 -10 -9 -16 16 -33 46 -33 198 -108 300 -147
52 -20 101 -40 110 -45 38 -20 181 -74 227 -85 28 -7 84 -23 125 -35 217 -63
345 -85 566 -97 l122 -6 78 43 c104 56 172 101 269 175 44 34 145 105 225 158
356 239 510 354 510 382 0 22 -39 40 -65 29z"/>
</g>
</svg>
