<?xml version="1.0" encoding="utf-8"?>
<!-- Generator: Adobe Illustrator 23.0.1, SVG Export Plug-In . SVG Version: 6.00 Build 0)  -->
<svg version="1.1" id="Layer_1" xmlns="http://www.w3.org/2000/svg" xmlns:xlink="http://www.w3.org/1999/xlink" x="0px" y="0px"
	 viewBox="0 0 100 100" style="enable-background:new 0 0 100 100;" xml:space="preserve">
<path d="M55.93,43.34c-8.7,0.32-30.27,2.77-30.27,20.98c0,19.55,24.7,20.36,32.77,7.71c1.16,1.82,6.32,6.7,8.09,8.36l10.14-10
	c0,0-5.77-4.52-5.77-9.43V34.7c0-4.52-4.38-14.7-20.05-14.7c-15.71,0-24.05,9.82-24.05,18.62l13.13,1.21C42.82,31,49.59,31,49.59,31
	C56.86,30.98,55.93,36.32,55.93,43.34L55.93,43.34z M55.93,58.84c0,14.29-15.04,12.14-15.04,3.07c0-8.43,9.02-10.12,15.04-10.32
	V58.84z M80.21,88.04C78.84,89.82,67.71,100,49.05,100S16.11,87.23,11.73,81.96c-1.21-1.38,0.18-2.02,0.98-1.48
	c13.09,7.95,33.54,21.04,66.52,5.41C80.57,85.23,81.61,86.25,80.21,88.04z M87.32,88.43c-1.16,2.82-2.86,4.79-3.79,5.54
	c-0.98,0.8-1.7,0.48-1.16-0.68s3.45-8.3,2.27-9.82c-1.16-1.48-6.61-0.77-8.57-0.57c-1.93,0.18-2.32,0.36-2.5-0.05
	c-0.41-1.02,3.88-2.77,6.7-3.12c2.8-0.32,7.32-0.14,8.21,1.02C89.14,81.64,88.48,85.57,87.32,88.43L87.32,88.43z"/>
</svg>
