<?xml version="1.0" encoding="utf-8"?>
<!-- Generator: Adobe Illustrator 23.0.1, SVG Export Plug-In . SVG Version: 6.00 Build 0)  -->
<svg version="1.1" id="Layer_1" xmlns="http://www.w3.org/2000/svg" xmlns:xlink="http://www.w3.org/1999/xlink" x="0px" y="0px"
	 viewBox="0 0 100 100" style="enable-background:new 0 0 100 100;" xml:space="preserve">
<path d="M56.12,32.8c-8.98,0.33-31.25,2.86-31.25,21.66c0,20.19,25.5,21.02,33.83,7.96c1.2,1.88,6.53,6.91,8.35,8.63l10.47-10.32
	c0,0-5.95-4.66-5.95-9.73V23.88c0-4.66-4.52-15.17-20.7-15.17c-16.22,0-24.83,10.14-24.83,19.23l13.55,1.25
	c3.01-9.13,9.99-9.13,9.99-9.13C57.08,20.04,56.12,25.55,56.12,32.8L56.12,32.8z M56.12,48.8c0,14.75-15.52,12.54-15.52,3.17
	c0-8.7,9.31-10.45,15.52-10.66V48.8z M81.19,78.94c-1.42,1.84-12.9,12.35-32.17,12.35S15.01,78.11,10.49,72.68
	c-1.25-1.42,0.18-2.08,1.01-1.53c13.51,8.2,34.62,21.72,68.67,5.59C81.56,76.05,82.63,77.1,81.19,78.94z M88.53,79.35
	c-1.2,2.91-2.95,4.94-3.91,5.72c-1.01,0.83-1.75,0.5-1.2-0.7c0.55-1.2,3.56-8.57,2.34-10.14c-1.2-1.53-6.82-0.79-8.85-0.59
	c-1.99,0.18-2.4,0.37-2.58-0.06c-0.42-1.05,4-2.86,6.91-3.23c2.89-0.33,7.56-0.15,8.48,1.05C90.41,72.34,89.73,76.4,88.53,79.35
	L88.53,79.35z"/>
</svg>
