<?xml version="1.0" encoding="utf-8"?>
<!-- Generator: Adobe Illustrator 23.0.1, SVG Export Plug-In . SVG Version: 6.00 Build 0)  -->
<svg version="1.1" id="Layer_1" xmlns="http://www.w3.org/2000/svg" xmlns:xlink="http://www.w3.org/1999/xlink" x="0px" y="0px"
	 viewBox="0 0 100 100" style="enable-background:new 0 0 100 100;" xml:space="preserve">
<path d="M22.77,36.92H10v27.25h20.73V25h-7.97V36.92z M22.77,57.77h-4.81V43.34h4.81V57.77z M69.2,36.92v27.25h12.78v4.45H69.2V75
	H90V36.92L69.2,36.92L69.2,36.92z M81.98,57.77h-4.81V43.34h4.81V57.77z M45.17,64.17H58v4.45H45.17V75H66V36.92H45.17V64.17z
	 M53.17,43.34h4.81v14.42h-4.81V43.34z M33.95,25h8.02v7.97h-8.02V25z M33.95,36.92h8.02v27.25h-8.02V36.92z"/>
</svg>
