<?xml version="1.0" encoding="utf-8"?>
<!-- Generator: Adobe Illustrator 23.0.1, SVG Export Plug-In . SVG Version: 6.00 Build 0)  -->
<svg version="1.1" id="Layer_1" xmlns="http://www.w3.org/2000/svg" xmlns:xlink="http://www.w3.org/1999/xlink" x="0px" y="0px"
	 viewBox="0 0 100 100" style="enable-background:new 0 0 100 100;" xml:space="preserve">
<path d="M56.59,24.82c3.64,0,6.6-3.38,6.6-7.55s-2.96-7.55-6.6-7.55c-3.64,0-6.6,3.38-6.6,7.55S52.95,24.82,56.59,24.82z
	 M69.58,48.28l-3.2-1.86l-1.33-4.63C63.03,34.78,57.39,29.87,51,29.86c-4.95-0.02-7.68,1.59-12.83,3.96
	c-2.97,1.37-5.4,3.96-6.83,7.27l-0.92,2.14c-1.07,2.49-0.21,5.51,1.95,6.75c2.14,1.24,4.76,0.24,5.84-2.25l0.92-2.14
	c0.48-1.1,1.28-1.97,2.27-2.42l3.68-1.7L43,51.02c-0.71,3.27,0.05,6.75,2.05,9.25l8.23,10.29c0.99,1.24,1.69,2.74,2.05,4.36
	l2.52,11.53c0.59,2.69,2.98,4.34,5.33,3.67c2.35-0.68,3.79-3.41,3.2-6.1l-3.05-14c-0.36-1.62-1.06-3.13-2.05-4.36l-6.26-7.82
	l2.36-10.81l0.76,2.6c0.73,2.53,2.3,4.63,4.36,5.82l3.2,1.86c2.14,1.24,4.76,0.24,5.84-2.25C72.61,52.57,71.74,49.52,69.58,48.28
	L69.58,48.28z M38.11,70.42c-0.44,1.27-1.1,2.42-1.95,3.38l-6.87,7.88c-1.72,1.97-1.72,5.16,0,7.13c1.72,1.97,4.5,1.97,6.21,0
	l8.17-9.35c0.84-0.96,1.5-2.11,1.95-3.38l1.86-5.32c-7.6-9.49-5.32-6.58-6.52-8.45C40.96,62.31,38.11,70.42,38.11,70.42z"/>
</svg>
