<?xml version="1.0" encoding="utf-8"?>
<!-- Generator: Adobe Illustrator 23.0.1, SVG Export Plug-In . SVG Version: 6.00 Build 0)  -->
<svg version="1.1" id="Layer_1" xmlns="http://www.w3.org/2000/svg" xmlns:xlink="http://www.w3.org/1999/xlink" x="0px" y="0px"
	 viewBox="0 0 100 100" style="enable-background:new 0 0 100 100;" xml:space="preserve">
<path d="M78.02,21.62C70.54,14.12,60.57,10,49.98,10c-21.86,0-39.64,17.79-39.64,39.64c0,6.98,1.82,13.8,5.29,19.82L10,90
	l21.02-5.52c5.79,3.16,12.3,4.82,18.95,4.82h0.02C71.82,89.3,90,71.52,90,49.66C90,39.07,85.5,29.13,78.02,21.62z M49.98,82.62
	c-5.93,0-11.73-1.59-16.79-4.59L32,77.32l-12.46,3.27l3.32-12.16l-0.79-1.25c-3.3-5.25-5.04-11.3-5.04-17.54
	C17.04,31.48,31.82,16.7,50,16.7c8.8,0,17.07,3.43,23.29,9.66s10.04,14.5,10.02,23.3C83.3,67.84,68.14,82.62,49.98,82.62z
	 M68.05,57.95c-0.98-0.5-5.86-2.89-6.77-3.21c-0.91-0.34-1.57-0.5-2.23,0.5c-0.66,1-2.55,3.21-3.14,3.89
	c-0.57,0.66-1.16,0.75-2.14,0.25c-5.82-2.91-9.64-5.2-13.48-11.79c-1.02-1.75,1.02-1.62,2.91-5.41c0.32-0.66,0.16-1.23-0.09-1.73
	s-2.23-5.38-3.05-7.36c-0.8-1.93-1.62-1.66-2.23-1.7c-0.57-0.04-1.23-0.04-1.89-0.04c-0.66,0-1.73,0.25-2.64,1.23
	c-0.91,1-3.46,3.39-3.46,8.27s3.55,9.59,4.04,10.25c0.5,0.66,6.98,10.66,16.93,14.96c6.29,2.71,8.75,2.95,11.89,2.48
	c1.91-0.29,5.86-2.39,6.68-4.71c0.82-2.32,0.82-4.3,0.57-4.71C69.7,58.68,69.04,58.43,68.05,57.95z"/>
</svg>
