<?xml version="1.0" encoding="utf-8"?>
<!-- Generator: Adobe Illustrator 23.0.1, SVG Export Plug-In . SVG Version: 6.00 Build 0)  -->
<svg version="1.1" id="Layer_1" xmlns="http://www.w3.org/2000/svg" xmlns:xlink="http://www.w3.org/1999/xlink" x="0px" y="0px"
	 viewBox="0 0 100 100" style="enable-background:new 0 0 100 100;" xml:space="preserve">
<path d="M50,10c-22.09,0-40,17.91-40,40s17.91,40,40,40s40-17.91,40-40S72.09,10,50,10z M50,70.65c-2.85,0-5.16-2.31-5.16-5.16
	c0-2.85,2.31-5.16,5.16-5.16s5.16,2.31,5.16,5.16C55.16,68.33,52.85,70.65,50,70.65z M50,50c-8.55,0-15.48,6.93-15.48,15.48
	S41.45,80.97,50,80.97C32.9,80.97,19.03,67.1,19.03,50S32.9,19.03,50,19.03c8.55,0,15.48,6.93,15.48,15.48S58.55,50,50,50z
	 M50,29.35c-2.85,0-5.16,2.31-5.16,5.16s2.31,5.16,5.16,5.16s5.16-2.31,5.16-5.16S52.85,29.35,50,29.35z"/>
</svg>
